<svg aria-roledescription="er" role="graphics-document document" viewBox="0 0 1385.52490234375 1274" style="max-width: 3840px; background-color: white; max-height: 3840px;" xmlns:xlink="http://www.w3.org/1999/xlink" xmlns="http://www.w3.org/2000/svg" width="100%" id="my-svg"><style>#my-svg{font-family:"trebuchet ms",verdana,arial,sans-serif;font-size:14px;fill:#ccc;}#my-svg .error-icon{fill:#a44141;}#my-svg .error-text{fill:#ddd;stroke:#ddd;}#my-svg .edge-thickness-normal{stroke-width:1px;}#my-svg .edge-thickness-thick{stroke-width:3.5px;}#my-svg .edge-pattern-solid{stroke-dasharray:0;}#my-svg .edge-thickness-invisible{stroke-width:0;fill:none;}#my-svg .edge-pattern-dashed{stroke-dasharray:3;}#my-svg .edge-pattern-dotted{stroke-dasharray:2;}#my-svg .marker{fill:lightgrey;stroke:lightgrey;}#my-svg .marker.cross{stroke:lightgrey;}#my-svg svg{font-family:"trebuchet ms",verdana,arial,sans-serif;font-size:14px;}#my-svg p{margin:0;}#my-svg .entityBox{fill:#1f2020;stroke:#ccc;}#my-svg .attributeBoxOdd{fill:hsl(0, 0%, 32%);stroke:#ccc;}#my-svg .attributeBoxEven{fill:hsl(0, 0%, 22%);stroke:#ccc;}#my-svg .relationshipLabelBox{fill:hsl(20, 1.5873015873%, 12.3529411765%);opacity:0.7;background-color:hsl(20, 1.5873015873%, 12.3529411765%);}#my-svg .relationshipLabelBox rect{opacity:0.5;}#my-svg .relationshipLine{stroke:lightgrey;}#my-svg .entityTitleText{text-anchor:middle;font-size:18px;fill:#ccc;}#my-svg #MD_PARENT_START{fill:#f5f5f5!important;stroke:lightgrey!important;stroke-width:1;}#my-svg #MD_PARENT_END{fill:#f5f5f5!important;stroke:lightgrey!important;stroke-width:1;}#my-svg .node .neo-node{stroke:#ccc;}#my-svg [data-look="neo"].node rect,#my-svg [data-look="neo"].cluster rect,#my-svg [data-look="neo"].node polygon{stroke:url(#my-svg-gradient);filter:drop-shadow( 1px 2px 2px rgba(185,185,185,1));}#my-svg [data-look="neo"].node rect,#my-svg [data-look="neo"].node polygon,#my-svg [data-look="neo"].node path{stroke:url(#my-svg-gradient);filter:drop-shadow( 1px 2px 2px rgba(185,185,185,1));}#my-svg [data-look="neo"].node .neo-line path{stroke:#cccccc;filter:none;}#my-svg [data-look="neo"].node circle{stroke:url(#my-svg-gradient);filter:drop-shadow( 1px 2px 2px rgba(185,185,185,1));}#my-svg [data-look="neo"].node circle .state-start{fill:#000000;}#my-svg [data-look="neo"].statediagram-cluster rect{fill:#1f2020;stroke:url(#my-svg-gradient);stroke-width:1px;}#my-svg [data-look="neo"].icon-shape .icon{fill:url(#my-svg-gradient);filter:drop-shadow( 1px 2px 2px rgba(185,185,185,1));}#my-svg [data-look="neo"].icon-shape .icon-neo path{stroke:url(#my-svg-gradient);filter:drop-shadow( 1px 2px 2px rgba(185,185,185,1));}#my-svg :root{--mermaid-font-family:"trebuchet ms",verdana,arial,sans-serif;}</style><g/><defs><marker orient="auto" markerHeight="240" markerWidth="190" refY="7" refX="0" id="MD_PARENT_START"><path d="M 18,7 L9,13 L1,7 L9,1 Z"/></marker></defs><defs><marker orient="auto" markerHeight="28" markerWidth="20" refY="7" refX="19" id="MD_PARENT_END"><path d="M 18,7 L9,13 L1,7 L9,1 Z"/></marker></defs><defs><marker orient="auto" markerHeight="18" markerWidth="18" refY="9" refX="0" id="ONLY_ONE_START"><path d="M9,0 L9,18 M15,0 L15,18" fill="none" stroke="gray"/></marker></defs><defs><marker orient="auto" markerHeight="18" markerWidth="18" refY="9" refX="18" id="ONLY_ONE_END"><path d="M3,0 L3,18 M9,0 L9,18" fill="none" stroke="gray"/></marker></defs><defs><marker orient="auto" markerHeight="18" markerWidth="30" refY="9" refX="0" id="ZERO_OR_ONE_START"><circle r="6" cy="9" cx="21" fill="white" stroke="gray"/><path d="M9,0 L9,18" fill="none" stroke="gray"/></marker></defs><defs><marker orient="auto" markerHeight="18" markerWidth="30" refY="9" refX="30" id="ZERO_OR_ONE_END"><circle r="6" cy="9" cx="9" fill="white" stroke="gray"/><path d="M21,0 L21,18" fill="none" stroke="gray"/></marker></defs><defs><marker orient="auto" markerHeight="36" markerWidth="45" refY="18" refX="18" id="ONE_OR_MORE_START"><path d="M0,18 Q 18,0 36,18 Q 18,36 0,18 M42,9 L42,27" fill="none" stroke="gray"/></marker></defs><defs><marker orient="auto" markerHeight="36" markerWidth="45" refY="18" refX="27" id="ONE_OR_MORE_END"><path d="M3,9 L3,27 M9,18 Q27,0 45,18 Q27,36 9,18" fill="none" stroke="gray"/></marker></defs><defs><marker orient="auto" markerHeight="36" markerWidth="57" refY="18" refX="18" id="ZERO_OR_MORE_START"><circle r="6" cy="18" cx="48" fill="white" stroke="gray"/><path d="M0,18 Q18,0 36,18 Q18,36 0,18" fill="none" stroke="gray"/></marker></defs><defs><marker orient="auto" markerHeight="36" markerWidth="57" refY="18" refX="39" id="ZERO_OR_MORE_END"><circle r="6" cy="18" cx="9" fill="white" stroke="gray"/><path d="M21,18 Q39,0 57,18 Q39,36 21,18" fill="none" stroke="gray"/></marker></defs><path style="stroke: gray; fill: none;" marker-start="url(#ONLY_ONE_START)" marker-end="url(#ZERO_OR_MORE_END)" d="M536.796,142.363L462.337,165.803C387.877,189.242,238.958,236.121,164.499,267.894C90.039,299.667,90.039,316.333,90.039,324.667L90.039,333" class="er relationshipLine"/><path style="stroke: gray; fill: none;" marker-start="url(#ONLY_ONE_START)" marker-end="url(#ZERO_OR_MORE_END)" d="M637.582,147.437L691.961,170.031C746.34,192.625,855.099,237.812,909.478,282.99C963.857,328.167,963.857,373.333,963.857,418.5C963.857,463.667,963.857,508.833,951.913,546.371C939.969,583.908,916.081,613.816,904.137,628.77L892.193,643.723" class="er relationshipLine"/><path style="stroke: gray; fill: none;" marker-start="url(#ONLY_ONE_START)" marker-end="url(#ZERO_OR_MORE_END)" d="M605.337,233L606.757,241.333C608.177,249.667,611.017,266.333,612.437,297.25C613.857,328.167,613.857,373.333,613.857,418.5C613.857,463.667,613.857,508.833,613.857,557.5C613.857,606.167,613.857,658.333,613.857,710.5C613.857,762.667,613.857,814.833,597.746,854.342C581.636,893.851,549.414,920.702,533.304,934.128L517.193,947.553" class="er relationshipLine"/><path style="stroke: gray; fill: none;" marker-start="url(#ONLY_ONE_START)" marker-end="url(#ZERO_OR_MORE_END)" d="M637.582,143.045L708.628,166.371C779.673,189.697,921.765,236.348,992.811,282.257C1063.857,328.167,1063.857,373.333,1063.857,418.5C1063.857,463.667,1063.857,508.833,1063.857,557.5C1063.857,606.167,1063.857,658.333,1063.857,710.5C1063.857,762.667,1063.857,814.833,1050.274,854.5C1036.69,894.167,1009.524,921.333,995.94,934.917L982.357,948.5" class="er relationshipLine"/><path style="stroke: gray; fill: none;" marker-start="url(#ONLY_ONE_START)" marker-end="url(#ZERO_OR_MORE_END)" d="M637.582,161.293L666.961,181.577C696.34,201.862,755.099,242.431,784.478,274.549C813.857,306.667,813.857,330.333,813.857,342.167L813.857,354" class="er relationshipLine"/><path style="stroke: gray; fill: none;" marker-start="url(#ONLY_ONE_START)" marker-end="url(#ZERO_OR_MORE_END)" d="M536.796,171.999L516.307,190.499C495.817,208.999,454.837,246,425.614,276.333C396.391,306.667,378.925,330.333,370.192,342.167L361.458,354" class="er relationshipLine"/><path style="stroke: gray; fill: none;" marker-start="url(#ONLY_ONE_START)" marker-end="url(#ZERO_OR_MORE_END)" d="M785.521,736.183L740.244,757.986C694.966,779.789,604.412,823.394,555.801,853.531C507.19,883.667,500.524,900.333,497.19,908.667L493.857,917" class="er relationshipLine"/><path style="stroke: gray; fill: none;" marker-start="url(#ONLY_ONE_START)" marker-end="url(#ZERO_OR_MORE_END)" d="M838.857,817L838.857,825.333C838.857,833.667,838.857,850.333,849.724,872.25C860.59,894.167,882.324,921.333,893.19,934.917L904.057,948.5" class="er relationshipLine"/><path style="stroke: gray; fill: none;" marker-start="url(#ONLY_ONE_START)" marker-end="url(#ZERO_OR_MORE_END)" d="M892.193,726.399L970.804,749.833C1049.414,773.266,1206.636,820.133,1285.246,864.4C1363.857,908.667,1363.857,950.333,1363.857,992C1363.857,1033.667,1363.857,1075.333,1359.549,1104.5C1355.242,1133.667,1346.626,1150.333,1342.319,1158.667L1338.011,1167" class="er relationshipLine"/><path style="stroke: gray; fill: none;" marker-start="url(#ONLY_ONE_START)" marker-end="url(#ZERO_OR_MORE_END)" d="M892.193,732.759L945.804,755.132C999.414,777.506,1106.636,822.253,1160.246,858.21C1213.857,894.167,1213.857,921.333,1213.857,934.917L1213.857,948.5" class="er relationshipLine"/><path style="stroke: gray; fill: none;" marker-start="url(#ONLY_ONE_START)" marker-end="url(#ZERO_OR_MORE_END)" d="M1213.857,1035.5L1213.857,1049.083C1213.857,1062.667,1213.857,1089.833,1222.918,1111.75C1231.98,1133.667,1250.102,1150.333,1259.164,1158.667L1268.225,1167" class="er relationshipLine"/><path style="stroke: gray; fill: none;" marker-start="url(#ZERO_OR_MORE_START)" marker-end="url(#ONLY_ONE_END)" d="M813.857,483L813.857,494.833C813.857,506.667,813.857,530.333,815.188,550.5C816.519,570.667,819.182,587.333,820.513,595.667L821.844,604" class="er relationshipLine"/><path style="stroke: gray; fill: none;" marker-start="url(#ZERO_OR_MORE_START)" marker-end="url(#ONLY_ONE_END)" d="M763.857,435.438L705.524,455.198C647.19,474.958,530.524,514.479,472.19,560.323C413.857,606.167,413.857,658.333,413.857,710.5C413.857,762.667,413.857,814.833,417.19,849.25C420.524,883.667,427.19,900.333,430.524,908.667L433.857,917" class="er relationshipLine"/><path style="stroke: gray; fill: none;" marker-start="url(#ZERO_OR_MORE_START)" marker-end="url(#ONLY_ONE_END)" d="M284.387,354L278.981,342.167C273.574,330.333,262.761,306.667,304.829,272.671C346.897,238.675,441.847,194.35,489.322,172.187L536.796,150.025" class="er relationshipLine"/><path style="stroke: gray; fill: none;" marker-start="url(#ZERO_OR_MORE_START)" marker-end="url(#ONLY_ONE_END)" d="M367.636,436.718L425.339,456.265C483.043,475.812,598.45,514.906,668.097,549.407C737.745,583.908,761.633,613.816,773.577,628.77L785.521,643.723" class="er relationshipLine"/><path style="stroke: gray; fill: none;" marker-start="url(#ZERO_OR_MORE_START)" marker-end="url(#ONLY_ONE_END)" d="M313.857,483L313.857,494.833C313.857,506.667,313.857,530.333,313.857,568.25C313.857,606.167,313.857,658.333,313.857,710.5C313.857,762.667,313.857,814.833,329.968,854.342C346.078,893.851,378.3,920.702,394.41,934.128L410.521,947.553" class="er relationshipLine"/><g transform="translate(536.7964096069336,20 )" id="entity-User-818c511a-4a32-5484-ba70-875d765a9175"><rect height="213" width="100.78521728515625" y="0" x="0" class="er entityBox"/><text style="dominant-baseline: middle; text-anchor: middle; font-size: 12px;" transform="translate(50.392608642578125,12)" y="0" x="0" id="text-entity-User-818c511a-4a32-5484-ba70-875d765a9175" class="er entityLabel">User</text><rect height="21" width="45.14947509765625" y="24" x="0" class="er attributeBoxOdd"/><text style="dominant-baseline: middle; font-size: 10.2px;" transform="translate(5,34.5)" y="0" x="0" id="text-entity-User-818c511a-4a32-5484-ba70-875d765a9175-attr-1-type" class="er entityLabel">string</text><rect height="21" width="55.6357421875" y="24" x="45.14947509765625" class="er attributeBoxOdd"/><text style="dominant-baseline: middle; font-size: 10.2px;" transform="translate(50.14947509765625,34.5)" y="0" x="0" id="text-entity-User-818c511a-4a32-5484-ba70-875d765a9175-attr-1-name" class="er entityLabel">_id</text><rect height="21" width="45.14947509765625" y="45" x="0" class="er attributeBoxEven"/><text style="dominant-baseline: middle; font-size: 10.2px;" transform="translate(5,55.5)" y="0" x="0" id="text-entity-User-818c511a-4a32-5484-ba70-875d765a9175-attr-2-type" class="er entityLabel">string</text><rect height="21" width="55.6357421875" y="45" x="45.14947509765625" class="er attributeBoxEven"/><text style="dominant-baseline: middle; font-size: 10.2px;" transform="translate(50.14947509765625,55.5)" y="0" x="0" id="text-entity-User-818c511a-4a32-5484-ba70-875d765a9175-attr-2-name" class="er entityLabel">name</text><rect height="21" width="45.14947509765625" y="66" x="0" class="er attributeBoxOdd"/><text style="dominant-baseline: middle; font-size: 10.2px;" transform="translate(5,76.5)" y="0" x="0" id="text-entity-User-818c511a-4a32-5484-ba70-875d765a9175-attr-3-type" class="er entityLabel">string</text><rect height="21" width="55.6357421875" y="66" x="45.14947509765625" class="er attributeBoxOdd"/><text style="dominant-baseline: middle; font-size: 10.2px;" transform="translate(50.14947509765625,76.5)" y="0" x="0" id="text-entity-User-818c511a-4a32-5484-ba70-875d765a9175-attr-3-name" class="er entityLabel">username</text><rect height="21" width="45.14947509765625" y="87" x="0" class="er attributeBoxEven"/><text style="dominant-baseline: middle; font-size: 10.2px;" transform="translate(5,97.5)" y="0" x="0" id="text-entity-User-818c511a-4a32-5484-ba70-875d765a9175-attr-4-type" class="er entityLabel">string</text><rect height="21" width="55.6357421875" y="87" x="45.14947509765625" class="er attributeBoxEven"/><text style="dominant-baseline: middle; font-size: 10.2px;" transform="translate(50.14947509765625,97.5)" y="0" x="0" id="text-entity-User-818c511a-4a32-5484-ba70-875d765a9175-attr-4-name" class="er entityLabel">email</text><rect height="21" width="45.14947509765625" y="108" x="0" class="er attributeBoxOdd"/><text style="dominant-baseline: middle; font-size: 10.2px;" transform="translate(5,118.5)" y="0" x="0" id="text-entity-User-818c511a-4a32-5484-ba70-875d765a9175-attr-5-type" class="er entityLabel">string</text><rect height="21" width="55.6357421875" y="108" x="45.14947509765625" class="er attributeBoxOdd"/><text style="dominant-baseline: middle; font-size: 10.2px;" transform="translate(50.14947509765625,118.5)" y="0" x="0" id="text-entity-User-818c511a-4a32-5484-ba70-875d765a9175-attr-5-name" class="er entityLabel">bio</text><rect height="21" width="45.14947509765625" y="129" x="0" class="er attributeBoxEven"/><text style="dominant-baseline: middle; font-size: 10.2px;" transform="translate(5,139.5)" y="0" x="0" id="text-entity-User-818c511a-4a32-5484-ba70-875d765a9175-attr-6-type" class="er entityLabel">string</text><rect height="21" width="55.6357421875" y="129" x="45.14947509765625" class="er attributeBoxEven"/><text style="dominant-baseline: middle; font-size: 10.2px;" transform="translate(50.14947509765625,139.5)" y="0" x="0" id="text-entity-User-818c511a-4a32-5484-ba70-875d765a9175-attr-6-name" class="er entityLabel">image</text><rect height="21" width="45.14947509765625" y="150" x="0" class="er attributeBoxOdd"/><text style="dominant-baseline: middle; font-size: 10.2px;" transform="translate(5,160.5)" y="0" x="0" id="text-entity-User-818c511a-4a32-5484-ba70-875d765a9175-attr-7-type" class="er entityLabel">string</text><rect height="21" width="55.6357421875" y="150" x="45.14947509765625" class="er attributeBoxOdd"/><text style="dominant-baseline: middle; font-size: 10.2px;" transform="translate(50.14947509765625,160.5)" y="0" x="0" id="text-entity-User-818c511a-4a32-5484-ba70-875d765a9175-attr-7-name" class="er entityLabel">location</text><rect height="21" width="45.14947509765625" y="171" x="0" class="er attributeBoxEven"/><text style="dominant-baseline: middle; font-size: 10.2px;" transform="translate(5,181.5)" y="0" x="0" id="text-entity-User-818c511a-4a32-5484-ba70-875d765a9175-attr-8-type" class="er entityLabel">string</text><rect height="21" width="55.6357421875" y="171" x="45.14947509765625" class="er attributeBoxEven"/><text style="dominant-baseline: middle; font-size: 10.2px;" transform="translate(50.14947509765625,181.5)" y="0" x="0" id="text-entity-User-818c511a-4a32-5484-ba70-875d765a9175-attr-8-name" class="er entityLabel">portfolio</text><rect height="21" width="45.14947509765625" y="192" x="0" class="er attributeBoxOdd"/><text style="dominant-baseline: middle; font-size: 10.2px;" transform="translate(5,202.5)" y="0" x="0" id="text-entity-User-818c511a-4a32-5484-ba70-875d765a9175-attr-9-type" class="er entityLabel">number</text><rect height="21" width="55.6357421875" y="192" x="45.14947509765625" class="er attributeBoxOdd"/><text style="dominant-baseline: middle; font-size: 10.2px;" transform="translate(50.14947509765625,202.5)" y="0" x="0" id="text-entity-User-818c511a-4a32-5484-ba70-875d765a9175-attr-9-name" class="er entityLabel">reputation</text></g><g transform="translate(20,333 )" id="entity-Account-3e57c4b6-cd9d-514f-a2f6-ac5478bb332e"><rect height="171" width="140.078125" y="0" x="0" class="er entityBox"/><text style="dominant-baseline: middle; text-anchor: middle; font-size: 12px;" transform="translate(70.0390625,12)" y="0" x="0" id="text-entity-Account-3e57c4b6-cd9d-514f-a2f6-ac5478bb332e" class="er entityLabel">Account</text><rect height="21" width="47.953125" y="24" x="0" class="er attributeBoxOdd"/><text style="dominant-baseline: middle; font-size: 10.2px;" transform="translate(5,34.5)" y="0" x="0" id="text-entity-Account-3e57c4b6-cd9d-514f-a2f6-ac5478bb332e-attr-1-type" class="er entityLabel">string</text><rect height="21" width="92.125" y="24" x="47.953125" class="er attributeBoxOdd"/><text style="dominant-baseline: middle; font-size: 10.2px;" transform="translate(52.953125,34.5)" y="0" x="0" id="text-entity-Account-3e57c4b6-cd9d-514f-a2f6-ac5478bb332e-attr-1-name" class="er entityLabel">_id</text><rect height="21" width="47.953125" y="45" x="0" class="er attributeBoxEven"/><text style="dominant-baseline: middle; font-size: 10.2px;" transform="translate(5,55.5)" y="0" x="0" id="text-entity-Account-3e57c4b6-cd9d-514f-a2f6-ac5478bb332e-attr-2-type" class="er entityLabel">ObjectId</text><rect height="21" width="92.125" y="45" x="47.953125" class="er attributeBoxEven"/><text style="dominant-baseline: middle; font-size: 10.2px;" transform="translate(52.953125,55.5)" y="0" x="0" id="text-entity-Account-3e57c4b6-cd9d-514f-a2f6-ac5478bb332e-attr-2-name" class="er entityLabel">userId</text><rect height="21" width="47.953125" y="66" x="0" class="er attributeBoxOdd"/><text style="dominant-baseline: middle; font-size: 10.2px;" transform="translate(5,76.5)" y="0" x="0" id="text-entity-Account-3e57c4b6-cd9d-514f-a2f6-ac5478bb332e-attr-3-type" class="er entityLabel">string</text><rect height="21" width="92.125" y="66" x="47.953125" class="er attributeBoxOdd"/><text style="dominant-baseline: middle; font-size: 10.2px;" transform="translate(52.953125,76.5)" y="0" x="0" id="text-entity-Account-3e57c4b6-cd9d-514f-a2f6-ac5478bb332e-attr-3-name" class="er entityLabel">name</text><rect height="21" width="47.953125" y="87" x="0" class="er attributeBoxEven"/><text style="dominant-baseline: middle; font-size: 10.2px;" transform="translate(5,97.5)" y="0" x="0" id="text-entity-Account-3e57c4b6-cd9d-514f-a2f6-ac5478bb332e-attr-4-type" class="er entityLabel">string</text><rect height="21" width="92.125" y="87" x="47.953125" class="er attributeBoxEven"/><text style="dominant-baseline: middle; font-size: 10.2px;" transform="translate(52.953125,97.5)" y="0" x="0" id="text-entity-Account-3e57c4b6-cd9d-514f-a2f6-ac5478bb332e-attr-4-name" class="er entityLabel">image</text><rect height="21" width="47.953125" y="108" x="0" class="er attributeBoxOdd"/><text style="dominant-baseline: middle; font-size: 10.2px;" transform="translate(5,118.5)" y="0" x="0" id="text-entity-Account-3e57c4b6-cd9d-514f-a2f6-ac5478bb332e-attr-5-type" class="er entityLabel">string</text><rect height="21" width="92.125" y="108" x="47.953125" class="er attributeBoxOdd"/><text style="dominant-baseline: middle; font-size: 10.2px;" transform="translate(52.953125,118.5)" y="0" x="0" id="text-entity-Account-3e57c4b6-cd9d-514f-a2f6-ac5478bb332e-attr-5-name" class="er entityLabel">password</text><rect height="21" width="47.953125" y="129" x="0" class="er attributeBoxEven"/><text style="dominant-baseline: middle; font-size: 10.2px;" transform="translate(5,139.5)" y="0" x="0" id="text-entity-Account-3e57c4b6-cd9d-514f-a2f6-ac5478bb332e-attr-6-type" class="er entityLabel">string</text><rect height="21" width="92.125" y="129" x="47.953125" class="er attributeBoxEven"/><text style="dominant-baseline: middle; font-size: 10.2px;" transform="translate(52.953125,139.5)" y="0" x="0" id="text-entity-Account-3e57c4b6-cd9d-514f-a2f6-ac5478bb332e-attr-6-name" class="er entityLabel">provider</text><rect height="21" width="47.953125" y="150" x="0" class="er attributeBoxOdd"/><text style="dominant-baseline: middle; font-size: 10.2px;" transform="translate(5,160.5)" y="0" x="0" id="text-entity-Account-3e57c4b6-cd9d-514f-a2f6-ac5478bb332e-attr-7-type" class="er entityLabel">string</text><rect height="21" width="92.125" y="150" x="47.953125" class="er attributeBoxOdd"/><text style="dominant-baseline: middle; font-size: 10.2px;" transform="translate(52.953125,160.5)" y="0" x="0" id="text-entity-Account-3e57c4b6-cd9d-514f-a2f6-ac5478bb332e-attr-7-name" class="er entityLabel">providerAccountId</text></g><g transform="translate(785.5210494995117,604 )" id="entity-Question-489e4f99-55a1-57b9-ae56-53457bd575f3"><rect height="213" width="106.671875" y="0" x="0" class="er entityBox"/><text style="dominant-baseline: middle; text-anchor: middle; font-size: 12px;" transform="translate(53.3359375,12)" y="0" x="0" id="text-entity-Question-489e4f99-55a1-57b9-ae56-53457bd575f3" class="er entityLabel">Question</text><rect height="21" width="47.953125" y="24" x="0" class="er attributeBoxOdd"/><text style="dominant-baseline: middle; font-size: 10.2px;" transform="translate(5,34.5)" y="0" x="0" id="text-entity-Question-489e4f99-55a1-57b9-ae56-53457bd575f3-attr-1-type" class="er entityLabel">string</text><rect height="21" width="58.71875" y="24" x="47.953125" class="er attributeBoxOdd"/><text style="dominant-baseline: middle; font-size: 10.2px;" transform="translate(52.953125,34.5)" y="0" x="0" id="text-entity-Question-489e4f99-55a1-57b9-ae56-53457bd575f3-attr-1-name" class="er entityLabel">_id</text><rect height="21" width="47.953125" y="45" x="0" class="er attributeBoxEven"/><text style="dominant-baseline: middle; font-size: 10.2px;" transform="translate(5,55.5)" y="0" x="0" id="text-entity-Question-489e4f99-55a1-57b9-ae56-53457bd575f3-attr-2-type" class="er entityLabel">string</text><rect height="21" width="58.71875" y="45" x="47.953125" class="er attributeBoxEven"/><text style="dominant-baseline: middle; font-size: 10.2px;" transform="translate(52.953125,55.5)" y="0" x="0" id="text-entity-Question-489e4f99-55a1-57b9-ae56-53457bd575f3-attr-2-name" class="er entityLabel">title</text><rect height="21" width="47.953125" y="66" x="0" class="er attributeBoxOdd"/><text style="dominant-baseline: middle; font-size: 10.2px;" transform="translate(5,76.5)" y="0" x="0" id="text-entity-Question-489e4f99-55a1-57b9-ae56-53457bd575f3-attr-3-type" class="er entityLabel">string</text><rect height="21" width="58.71875" y="66" x="47.953125" class="er attributeBoxOdd"/><text style="dominant-baseline: middle; font-size: 10.2px;" transform="translate(52.953125,76.5)" y="0" x="0" id="text-entity-Question-489e4f99-55a1-57b9-ae56-53457bd575f3-attr-3-name" class="er entityLabel">content</text><rect height="21" width="47.953125" y="87" x="0" class="er attributeBoxEven"/><text style="dominant-baseline: middle; font-size: 10.2px;" transform="translate(5,97.5)" y="0" x="0" id="text-entity-Question-489e4f99-55a1-57b9-ae56-53457bd575f3-attr-4-type" class="er entityLabel">array</text><rect height="21" width="58.71875" y="87" x="47.953125" class="er attributeBoxEven"/><text style="dominant-baseline: middle; font-size: 10.2px;" transform="translate(52.953125,97.5)" y="0" x="0" id="text-entity-Question-489e4f99-55a1-57b9-ae56-53457bd575f3-attr-4-name" class="er entityLabel">tags</text><rect height="21" width="47.953125" y="108" x="0" class="er attributeBoxOdd"/><text style="dominant-baseline: middle; font-size: 10.2px;" transform="translate(5,118.5)" y="0" x="0" id="text-entity-Question-489e4f99-55a1-57b9-ae56-53457bd575f3-attr-5-type" class="er entityLabel">number</text><rect height="21" width="58.71875" y="108" x="47.953125" class="er attributeBoxOdd"/><text style="dominant-baseline: middle; font-size: 10.2px;" transform="translate(52.953125,118.5)" y="0" x="0" id="text-entity-Question-489e4f99-55a1-57b9-ae56-53457bd575f3-attr-5-name" class="er entityLabel">views</text><rect height="21" width="47.953125" y="129" x="0" class="er attributeBoxEven"/><text style="dominant-baseline: middle; font-size: 10.2px;" transform="translate(5,139.5)" y="0" x="0" id="text-entity-Question-489e4f99-55a1-57b9-ae56-53457bd575f3-attr-6-type" class="er entityLabel">number</text><rect height="21" width="58.71875" y="129" x="47.953125" class="er attributeBoxEven"/><text style="dominant-baseline: middle; font-size: 10.2px;" transform="translate(52.953125,139.5)" y="0" x="0" id="text-entity-Question-489e4f99-55a1-57b9-ae56-53457bd575f3-attr-6-name" class="er entityLabel">answers</text><rect height="21" width="47.953125" y="150" x="0" class="er attributeBoxOdd"/><text style="dominant-baseline: middle; font-size: 10.2px;" transform="translate(5,160.5)" y="0" x="0" id="text-entity-Question-489e4f99-55a1-57b9-ae56-53457bd575f3-attr-7-type" class="er entityLabel">number</text><rect height="21" width="58.71875" y="150" x="47.953125" class="er attributeBoxOdd"/><text style="dominant-baseline: middle; font-size: 10.2px;" transform="translate(52.953125,160.5)" y="0" x="0" id="text-entity-Question-489e4f99-55a1-57b9-ae56-53457bd575f3-attr-7-name" class="er entityLabel">upvotes</text><rect height="21" width="47.953125" y="171" x="0" class="er attributeBoxEven"/><text style="dominant-baseline: middle; font-size: 10.2px;" transform="translate(5,181.5)" y="0" x="0" id="text-entity-Question-489e4f99-55a1-57b9-ae56-53457bd575f3-attr-8-type" class="er entityLabel">number</text><rect height="21" width="58.71875" y="171" x="47.953125" class="er attributeBoxEven"/><text style="dominant-baseline: middle; font-size: 10.2px;" transform="translate(52.953125,181.5)" y="0" x="0" id="text-entity-Question-489e4f99-55a1-57b9-ae56-53457bd575f3-attr-8-name" class="er entityLabel">downvotes</text><rect height="21" width="47.953125" y="192" x="0" class="er attributeBoxOdd"/><text style="dominant-baseline: middle; font-size: 10.2px;" transform="translate(5,202.5)" y="0" x="0" id="text-entity-Question-489e4f99-55a1-57b9-ae56-53457bd575f3-attr-9-type" class="er entityLabel">ObjectId</text><rect height="21" width="58.71875" y="192" x="47.953125" class="er attributeBoxOdd"/><text style="dominant-baseline: middle; font-size: 10.2px;" transform="translate(52.953125,202.5)" y="0" x="0" id="text-entity-Question-489e4f99-55a1-57b9-ae56-53457bd575f3-attr-9-name" class="er entityLabel">author</text></g><g transform="translate(410.5210494995117,917 )" id="entity-Answer-ece50f12-3031-5cf8-81e8-464b2211b4a2"><rect height="150" width="106.671875" y="0" x="0" class="er entityBox"/><text style="dominant-baseline: middle; text-anchor: middle; font-size: 12px;" transform="translate(53.3359375,12)" y="0" x="0" id="text-entity-Answer-ece50f12-3031-5cf8-81e8-464b2211b4a2" class="er entityLabel">Answer</text><rect height="21" width="47.953125" y="24" x="0" class="er attributeBoxOdd"/><text style="dominant-baseline: middle; font-size: 10.2px;" transform="translate(5,34.5)" y="0" x="0" id="text-entity-Answer-ece50f12-3031-5cf8-81e8-464b2211b4a2-attr-1-type" class="er entityLabel">string</text><rect height="21" width="58.71875" y="24" x="47.953125" class="er attributeBoxOdd"/><text style="dominant-baseline: middle; font-size: 10.2px;" transform="translate(52.953125,34.5)" y="0" x="0" id="text-entity-Answer-ece50f12-3031-5cf8-81e8-464b2211b4a2-attr-1-name" class="er entityLabel">_id</text><rect height="21" width="47.953125" y="45" x="0" class="er attributeBoxEven"/><text style="dominant-baseline: middle; font-size: 10.2px;" transform="translate(5,55.5)" y="0" x="0" id="text-entity-Answer-ece50f12-3031-5cf8-81e8-464b2211b4a2-attr-2-type" class="er entityLabel">ObjectId</text><rect height="21" width="58.71875" y="45" x="47.953125" class="er attributeBoxEven"/><text style="dominant-baseline: middle; font-size: 10.2px;" transform="translate(52.953125,55.5)" y="0" x="0" id="text-entity-Answer-ece50f12-3031-5cf8-81e8-464b2211b4a2-attr-2-name" class="er entityLabel">author</text><rect height="21" width="47.953125" y="66" x="0" class="er attributeBoxOdd"/><text style="dominant-baseline: middle; font-size: 10.2px;" transform="translate(5,76.5)" y="0" x="0" id="text-entity-Answer-ece50f12-3031-5cf8-81e8-464b2211b4a2-attr-3-type" class="er entityLabel">ObjectId</text><rect height="21" width="58.71875" y="66" x="47.953125" class="er attributeBoxOdd"/><text style="dominant-baseline: middle; font-size: 10.2px;" transform="translate(52.953125,76.5)" y="0" x="0" id="text-entity-Answer-ece50f12-3031-5cf8-81e8-464b2211b4a2-attr-3-name" class="er entityLabel">question</text><rect height="21" width="47.953125" y="87" x="0" class="er attributeBoxEven"/><text style="dominant-baseline: middle; font-size: 10.2px;" transform="translate(5,97.5)" y="0" x="0" id="text-entity-Answer-ece50f12-3031-5cf8-81e8-464b2211b4a2-attr-4-type" class="er entityLabel">string</text><rect height="21" width="58.71875" y="87" x="47.953125" class="er attributeBoxEven"/><text style="dominant-baseline: middle; font-size: 10.2px;" transform="translate(52.953125,97.5)" y="0" x="0" id="text-entity-Answer-ece50f12-3031-5cf8-81e8-464b2211b4a2-attr-4-name" class="er entityLabel">content</text><rect height="21" width="47.953125" y="108" x="0" class="er attributeBoxOdd"/><text style="dominant-baseline: middle; font-size: 10.2px;" transform="translate(5,118.5)" y="0" x="0" id="text-entity-Answer-ece50f12-3031-5cf8-81e8-464b2211b4a2-attr-5-type" class="er entityLabel">number</text><rect height="21" width="58.71875" y="108" x="47.953125" class="er attributeBoxOdd"/><text style="dominant-baseline: middle; font-size: 10.2px;" transform="translate(52.953125,118.5)" y="0" x="0" id="text-entity-Answer-ece50f12-3031-5cf8-81e8-464b2211b4a2-attr-5-name" class="er entityLabel">upvotes</text><rect height="21" width="47.953125" y="129" x="0" class="er attributeBoxEven"/><text style="dominant-baseline: middle; font-size: 10.2px;" transform="translate(5,139.5)" y="0" x="0" id="text-entity-Answer-ece50f12-3031-5cf8-81e8-464b2211b4a2-attr-6-type" class="er entityLabel">number</text><rect height="21" width="58.71875" y="129" x="47.953125" class="er attributeBoxEven"/><text style="dominant-baseline: middle; font-size: 10.2px;" transform="translate(52.953125,139.5)" y="0" x="0" id="text-entity-Answer-ece50f12-3031-5cf8-81e8-464b2211b4a2-attr-6-name" class="er entityLabel">downvotes</text></g><g transform="translate(888.8569869995117,948.5 )" id="entity-Collection-b1937adc-4c91-509a-b683-bddc8bc6261c"><rect height="87" width="100" y="0" x="0" class="er entityBox"/><text style="dominant-baseline: middle; text-anchor: middle; font-size: 12px;" transform="translate(50,12)" y="0" x="0" id="text-entity-Collection-b1937adc-4c91-509a-b683-bddc8bc6261c" class="er entityLabel">Collection</text><rect height="21" width="49.7109375" y="24" x="0" class="er attributeBoxOdd"/><text style="dominant-baseline: middle; font-size: 10.2px;" transform="translate(5,34.5)" y="0" x="0" id="text-entity-Collection-b1937adc-4c91-509a-b683-bddc8bc6261c-attr-1-type" class="er entityLabel">string</text><rect height="21" width="50.2890625" y="24" x="49.7109375" class="er attributeBoxOdd"/><text style="dominant-baseline: middle; font-size: 10.2px;" transform="translate(54.7109375,34.5)" y="0" x="0" id="text-entity-Collection-b1937adc-4c91-509a-b683-bddc8bc6261c-attr-1-name" class="er entityLabel">_id</text><rect height="21" width="49.7109375" y="45" x="0" class="er attributeBoxEven"/><text style="dominant-baseline: middle; font-size: 10.2px;" transform="translate(5,55.5)" y="0" x="0" id="text-entity-Collection-b1937adc-4c91-509a-b683-bddc8bc6261c-attr-2-type" class="er entityLabel">ObjectId</text><rect height="21" width="50.2890625" y="45" x="49.7109375" class="er attributeBoxEven"/><text style="dominant-baseline: middle; font-size: 10.2px;" transform="translate(54.7109375,55.5)" y="0" x="0" id="text-entity-Collection-b1937adc-4c91-509a-b683-bddc8bc6261c-attr-2-name" class="er entityLabel">author</text><rect height="21" width="49.7109375" y="66" x="0" class="er attributeBoxOdd"/><text style="dominant-baseline: middle; font-size: 10.2px;" transform="translate(5,76.5)" y="0" x="0" id="text-entity-Collection-b1937adc-4c91-509a-b683-bddc8bc6261c-attr-3-type" class="er entityLabel">ObjectId</text><rect height="21" width="50.2890625" y="66" x="49.7109375" class="er attributeBoxOdd"/><text style="dominant-baseline: middle; font-size: 10.2px;" transform="translate(54.7109375,76.5)" y="0" x="0" id="text-entity-Collection-b1937adc-4c91-509a-b683-bddc8bc6261c-attr-3-name" class="er entityLabel">question</text></g><g transform="translate(763.8569869995117,354 )" id="entity-Vote-ec987b51-9e41-5492-a543-0e338139a3ae"><rect height="129" width="100" y="0" x="0" class="er entityBox"/><text style="dominant-baseline: middle; text-anchor: middle; font-size: 12px;" transform="translate(50,12)" y="0" x="0" id="text-entity-Vote-ec987b51-9e41-5492-a543-0e338139a3ae" class="er entityLabel">Vote</text><rect height="21" width="48.138832092285156" y="24" x="0" class="er attributeBoxOdd"/><text style="dominant-baseline: middle; font-size: 10.2px;" transform="translate(5,34.5)" y="0" x="0" id="text-entity-Vote-ec987b51-9e41-5492-a543-0e338139a3ae-attr-1-type" class="er entityLabel">string</text><rect height="21" width="51.861167907714844" y="24" x="48.138832092285156" class="er attributeBoxOdd"/><text style="dominant-baseline: middle; font-size: 10.2px;" transform="translate(53.138832092285156,34.5)" y="0" x="0" id="text-entity-Vote-ec987b51-9e41-5492-a543-0e338139a3ae-attr-1-name" class="er entityLabel">_id</text><rect height="21" width="48.138832092285156" y="45" x="0" class="er attributeBoxEven"/><text style="dominant-baseline: middle; font-size: 10.2px;" transform="translate(5,55.5)" y="0" x="0" id="text-entity-Vote-ec987b51-9e41-5492-a543-0e338139a3ae-attr-2-type" class="er entityLabel">ObjectId</text><rect height="21" width="51.861167907714844" y="45" x="48.138832092285156" class="er attributeBoxEven"/><text style="dominant-baseline: middle; font-size: 10.2px;" transform="translate(53.138832092285156,55.5)" y="0" x="0" id="text-entity-Vote-ec987b51-9e41-5492-a543-0e338139a3ae-attr-2-name" class="er entityLabel">author</text><rect height="21" width="48.138832092285156" y="66" x="0" class="er attributeBoxOdd"/><text style="dominant-baseline: middle; font-size: 10.2px;" transform="translate(5,76.5)" y="0" x="0" id="text-entity-Vote-ec987b51-9e41-5492-a543-0e338139a3ae-attr-3-type" class="er entityLabel">ObjectId</text><rect height="21" width="51.861167907714844" y="66" x="48.138832092285156" class="er attributeBoxOdd"/><text style="dominant-baseline: middle; font-size: 10.2px;" transform="translate(53.138832092285156,76.5)" y="0" x="0" id="text-entity-Vote-ec987b51-9e41-5492-a543-0e338139a3ae-attr-3-name" class="er entityLabel">id</text><rect height="21" width="48.138832092285156" y="87" x="0" class="er attributeBoxEven"/><text style="dominant-baseline: middle; font-size: 10.2px;" transform="translate(5,97.5)" y="0" x="0" id="text-entity-Vote-ec987b51-9e41-5492-a543-0e338139a3ae-attr-4-type" class="er entityLabel">string</text><rect height="21" width="51.861167907714844" y="87" x="48.138832092285156" class="er attributeBoxEven"/><text style="dominant-baseline: middle; font-size: 10.2px;" transform="translate(53.138832092285156,97.5)" y="0" x="0" id="text-entity-Vote-ec987b51-9e41-5492-a543-0e338139a3ae-attr-4-name" class="er entityLabel">type</text><rect height="21" width="48.138832092285156" y="108" x="0" class="er attributeBoxOdd"/><text style="dominant-baseline: middle; font-size: 10.2px;" transform="translate(5,118.5)" y="0" x="0" id="text-entity-Vote-ec987b51-9e41-5492-a543-0e338139a3ae-attr-5-type" class="er entityLabel">string</text><rect height="21" width="51.861167907714844" y="108" x="48.138832092285156" class="er attributeBoxOdd"/><text style="dominant-baseline: middle; font-size: 10.2px;" transform="translate(53.138832092285156,118.5)" y="0" x="0" id="text-entity-Vote-ec987b51-9e41-5492-a543-0e338139a3ae-attr-5-name" class="er entityLabel">voteType</text></g><g transform="translate(260.078125,354 )" id="entity-Interaction-ffa22751-19ca-5a30-86f7-3f502295be3a"><rect height="129" width="107.55772399902344" y="0" x="0" class="er entityBox"/><text style="dominant-baseline: middle; text-anchor: middle; font-size: 12px;" transform="translate(53.77886199951172,12)" y="0" x="0" id="text-entity-Interaction-ffa22751-19ca-5a30-86f7-3f502295be3a" class="er entityLabel">Interaction</text><rect height="21" width="47.953125" y="24" x="0" class="er attributeBoxOdd"/><text style="dominant-baseline: middle; font-size: 10.2px;" transform="translate(5,34.5)" y="0" x="0" id="text-entity-Interaction-ffa22751-19ca-5a30-86f7-3f502295be3a-attr-1-type" class="er entityLabel">string</text><rect height="21" width="59.60459899902344" y="24" x="47.953125" class="er attributeBoxOdd"/><text style="dominant-baseline: middle; font-size: 10.2px;" transform="translate(52.953125,34.5)" y="0" x="0" id="text-entity-Interaction-ffa22751-19ca-5a30-86f7-3f502295be3a-attr-1-name" class="er entityLabel">_id</text><rect height="21" width="47.953125" y="45" x="0" class="er attributeBoxEven"/><text style="dominant-baseline: middle; font-size: 10.2px;" transform="translate(5,55.5)" y="0" x="0" id="text-entity-Interaction-ffa22751-19ca-5a30-86f7-3f502295be3a-attr-2-type" class="er entityLabel">ObjectId</text><rect height="21" width="59.60459899902344" y="45" x="47.953125" class="er attributeBoxEven"/><text style="dominant-baseline: middle; font-size: 10.2px;" transform="translate(52.953125,55.5)" y="0" x="0" id="text-entity-Interaction-ffa22751-19ca-5a30-86f7-3f502295be3a-attr-2-name" class="er entityLabel">user</text><rect height="21" width="47.953125" y="66" x="0" class="er attributeBoxOdd"/><text style="dominant-baseline: middle; font-size: 10.2px;" transform="translate(5,76.5)" y="0" x="0" id="text-entity-Interaction-ffa22751-19ca-5a30-86f7-3f502295be3a-attr-3-type" class="er entityLabel">string</text><rect height="21" width="59.60459899902344" y="66" x="47.953125" class="er attributeBoxOdd"/><text style="dominant-baseline: middle; font-size: 10.2px;" transform="translate(52.953125,76.5)" y="0" x="0" id="text-entity-Interaction-ffa22751-19ca-5a30-86f7-3f502295be3a-attr-3-name" class="er entityLabel">action</text><rect height="21" width="47.953125" y="87" x="0" class="er attributeBoxEven"/><text style="dominant-baseline: middle; font-size: 10.2px;" transform="translate(5,97.5)" y="0" x="0" id="text-entity-Interaction-ffa22751-19ca-5a30-86f7-3f502295be3a-attr-4-type" class="er entityLabel">ObjectId</text><rect height="21" width="59.60459899902344" y="87" x="47.953125" class="er attributeBoxEven"/><text style="dominant-baseline: middle; font-size: 10.2px;" transform="translate(52.953125,97.5)" y="0" x="0" id="text-entity-Interaction-ffa22751-19ca-5a30-86f7-3f502295be3a-attr-4-name" class="er entityLabel">actionId</text><rect height="21" width="47.953125" y="108" x="0" class="er attributeBoxOdd"/><text style="dominant-baseline: middle; font-size: 10.2px;" transform="translate(5,118.5)" y="0" x="0" id="text-entity-Interaction-ffa22751-19ca-5a30-86f7-3f502295be3a-attr-5-type" class="er entityLabel">string</text><rect height="21" width="59.60459899902344" y="108" x="47.953125" class="er attributeBoxOdd"/><text style="dominant-baseline: middle; font-size: 10.2px;" transform="translate(52.953125,118.5)" y="0" x="0" id="text-entity-Interaction-ffa22751-19ca-5a30-86f7-3f502295be3a-attr-5-name" class="er entityLabel">actionType</text></g><g transform="translate(1265.5249557495117,1167 )" id="entity-TagQuestion-d1409316-08f0-59b0-b99b-b96f99bd9c89"><rect height="87" width="100" y="0" x="0" class="er entityBox"/><text style="dominant-baseline: middle; text-anchor: middle; font-size: 12px;" transform="translate(50,12)" y="0" x="0" id="text-entity-TagQuestion-d1409316-08f0-59b0-b99b-b96f99bd9c89" class="er entityLabel">TagQuestion</text><rect height="21" width="49.7109375" y="24" x="0" class="er attributeBoxOdd"/><text style="dominant-baseline: middle; font-size: 10.2px;" transform="translate(5,34.5)" y="0" x="0" id="text-entity-TagQuestion-d1409316-08f0-59b0-b99b-b96f99bd9c89-attr-1-type" class="er entityLabel">string</text><rect height="21" width="50.2890625" y="24" x="49.7109375" class="er attributeBoxOdd"/><text style="dominant-baseline: middle; font-size: 10.2px;" transform="translate(54.7109375,34.5)" y="0" x="0" id="text-entity-TagQuestion-d1409316-08f0-59b0-b99b-b96f99bd9c89-attr-1-name" class="er entityLabel">_id</text><rect height="21" width="49.7109375" y="45" x="0" class="er attributeBoxEven"/><text style="dominant-baseline: middle; font-size: 10.2px;" transform="translate(5,55.5)" y="0" x="0" id="text-entity-TagQuestion-d1409316-08f0-59b0-b99b-b96f99bd9c89-attr-2-type" class="er entityLabel">ObjectId</text><rect height="21" width="50.2890625" y="45" x="49.7109375" class="er attributeBoxEven"/><text style="dominant-baseline: middle; font-size: 10.2px;" transform="translate(54.7109375,55.5)" y="0" x="0" id="text-entity-TagQuestion-d1409316-08f0-59b0-b99b-b96f99bd9c89-attr-2-name" class="er entityLabel">question</text><rect height="21" width="49.7109375" y="66" x="0" class="er attributeBoxOdd"/><text style="dominant-baseline: middle; font-size: 10.2px;" transform="translate(5,76.5)" y="0" x="0" id="text-entity-TagQuestion-d1409316-08f0-59b0-b99b-b96f99bd9c89-attr-3-type" class="er entityLabel">ObjectId</text><rect height="21" width="50.2890625" y="66" x="49.7109375" class="er attributeBoxOdd"/><text style="dominant-baseline: middle; font-size: 10.2px;" transform="translate(54.7109375,76.5)" y="0" x="0" id="text-entity-TagQuestion-d1409316-08f0-59b0-b99b-b96f99bd9c89-attr-3-name" class="er entityLabel">tagId</text></g><g transform="translate(1163.8569869995117,948.5 )" id="entity-Tag-79f01a75-328e-5fee-acfd-3ecc1e7e19fa"><rect height="87" width="100" y="0" x="0" class="er entityBox"/><text style="dominant-baseline: middle; text-anchor: middle; font-size: 12px;" transform="translate(50,12)" y="0" x="0" id="text-entity-Tag-79f01a75-328e-5fee-acfd-3ecc1e7e19fa" class="er entityLabel">Tag</text><rect height="21" width="45.762237548828125" y="24" x="0" class="er attributeBoxOdd"/><text style="dominant-baseline: middle; font-size: 10.2px;" transform="translate(5,34.5)" y="0" x="0" id="text-entity-Tag-79f01a75-328e-5fee-acfd-3ecc1e7e19fa-attr-1-type" class="er entityLabel">string</text><rect height="21" width="54.237762451171875" y="24" x="45.762237548828125" class="er attributeBoxOdd"/><text style="dominant-baseline: middle; font-size: 10.2px;" transform="translate(50.762237548828125,34.5)" y="0" x="0" id="text-entity-Tag-79f01a75-328e-5fee-acfd-3ecc1e7e19fa-attr-1-name" class="er entityLabel">_id</text><rect height="21" width="45.762237548828125" y="45" x="0" class="er attributeBoxEven"/><text style="dominant-baseline: middle; font-size: 10.2px;" transform="translate(5,55.5)" y="0" x="0" id="text-entity-Tag-79f01a75-328e-5fee-acfd-3ecc1e7e19fa-attr-2-type" class="er entityLabel">string</text><rect height="21" width="54.237762451171875" y="45" x="45.762237548828125" class="er attributeBoxEven"/><text style="dominant-baseline: middle; font-size: 10.2px;" transform="translate(50.762237548828125,55.5)" y="0" x="0" id="text-entity-Tag-79f01a75-328e-5fee-acfd-3ecc1e7e19fa-attr-2-name" class="er entityLabel">name</text><rect height="21" width="45.762237548828125" y="66" x="0" class="er attributeBoxOdd"/><text style="dominant-baseline: middle; font-size: 10.2px;" transform="translate(5,76.5)" y="0" x="0" id="text-entity-Tag-79f01a75-328e-5fee-acfd-3ecc1e7e19fa-attr-3-type" class="er entityLabel">number</text><rect height="21" width="54.237762451171875" y="66" x="45.762237548828125" class="er attributeBoxOdd"/><text style="dominant-baseline: middle; font-size: 10.2px;" transform="translate(50.762237548828125,76.5)" y="0" x="0" id="text-entity-Tag-79f01a75-328e-5fee-acfd-3ecc1e7e19fa-attr-3-name" class="er entityLabel">questions</text></g><rect height="14" width="19.359375" y="211.50694274902344" x="289.46453857421875" class="er relationshipLabelBox"/><text style="text-anchor: middle; dominant-baseline: middle; font-size: 12px;" y="218.50694274902344" x="299.14422607421875" id="rel1" class="er relationshipLabel">has</text><rect height="14" width="24.6875" y="309.3758850097656" x="928.2352294921875" class="er relationshipLabelBox"/><text style="text-anchor: middle; dominant-baseline: middle; font-size: 12px;" y="316.3758850097656" x="940.5789794921875" id="rel2" class="er relationshipLabel">asks</text><rect height="14" width="31.34375" y="599.6390380859375" x="598.1851196289062" class="er relationshipLabelBox"/><text style="text-anchor: middle; dominant-baseline: middle; font-size: 12px;" y="606.6390380859375" x="613.8569946289062" id="rel3" class="er relationshipLabel">writes</text><rect height="14" width="39.359375" y="416.1212158203125" x="1044.1773681640625" class="er relationshipLabelBox"/><text style="text-anchor: middle; dominant-baseline: middle; font-size: 12px;" y="423.1212158203125" x="1063.8570556640625" id="rel4" class="er relationshipLabel">creates</text><rect height="14" width="35.34375" y="234.35025024414062" x="730.6332397460938" class="er relationshipLabelBox"/><text style="text-anchor: middle; dominant-baseline: middle; font-size: 12px;" y="241.35025024414062" x="748.3051147460938" id="rel5" class="er relationshipLabel">makes</text><rect height="14" width="47.34375" y="251.00613403320312" x="420.1485595703125" class="er relationshipLabelBox"/><text style="text-anchor: middle; dominant-baseline: middle; font-size: 12px;" y="258.0061340332031" x="443.8204345703125" id="rel6" class="er relationshipLabel">performs</text><rect height="14" width="19.359375" y="806.0158081054688" x="619.2838134765625" class="er relationshipLabelBox"/><text style="text-anchor: middle; dominant-baseline: middle; font-size: 12px;" y="813.0158081054688" x="628.9635009765625" id="rel7" class="er relationshipLabel">has</text><rect height="14" width="9.34375" y="881.2322998046875" x="854.171630859375" class="er relationshipLabelBox"/><text style="text-anchor: middle; dominant-baseline: middle; font-size: 12px;" y="888.2322998046875" x="858.843505859375" id="rel8" class="er relationshipLabel">in</text><rect height="14" width="19.359375" y="839.8556518554688" x="1240.8211669921875" class="er relationshipLabelBox"/><text style="text-anchor: middle; dominant-baseline: middle; font-size: 12px;" y="846.8556518554688" x="1250.5008544921875" id="rel9" class="er relationshipLabel">has</text><rect height="14" width="22.6875" y="806.8961181640625" x="1067.9053955078125" class="er relationshipLabelBox"/><text style="text-anchor: middle; dominant-baseline: middle; font-size: 12px;" y="813.8961181640625" x="1079.2491455078125" id="rel10" class="er relationshipLabel">tags</text><rect height="14" width="19.359375" y="1102.3214111328125" x="1212.2789306640625" class="er relationshipLabelBox"/><text style="text-anchor: middle; dominant-baseline: middle; font-size: 12px;" y="1109.3214111328125" x="1221.9586181640625" id="rel11" class="er relationshipLabel">has</text><rect height="14" width="15.0078125" y="536.716552734375" x="807.291259765625" class="er relationshipLabelBox"/><text style="text-anchor: middle; dominant-baseline: middle; font-size: 12px;" y="543.716552734375" x="814.795166015625" id="rel12" class="er relationshipLabel">for</text><rect height="14" width="15.0078125" y="573.3028564453125" x="443.120849609375" class="er relationshipLabelBox"/><text style="text-anchor: middle; dominant-baseline: middle; font-size: 12px;" y="580.3028564453125" x="450.624755859375" id="rel13" class="er relationshipLabel">for</text><rect height="14" width="12.6875" y="220.99855041503906" x="369.7734375" class="er relationshipLabelBox"/><text style="text-anchor: middle; dominant-baseline: middle; font-size: 12px;" y="227.99855041503906" x="376.1171875" id="rel14" class="er relationshipLabel">by</text><rect height="14" width="13.359375" y="508.731201171875" x="584.0497436523438" class="er relationshipLabelBox"/><text style="text-anchor: middle; dominant-baseline: middle; font-size: 12px;" y="515.731201171875" x="590.7294311523438" id="rel15" class="er relationshipLabel">on</text><rect height="14" width="13.359375" y="724.8709106445312" x="307.2200622558594" class="er relationshipLabelBox"/><text style="text-anchor: middle; dominant-baseline: middle; font-size: 12px;" y="731.8709106445312" x="313.8997497558594" id="rel16" class="er relationshipLabel">on</text><style>svg span {
  font-family: 'Arial' !important;
}

svg {
  font-family: 'Arial' !important;
  -webkit-user-select: none;
  -moz-user-select: none;
  -ms-user-select: none;
  user-select: none;
}
</style></svg>